<svg width="311" height="311" viewBox="0 0 311 311" fill="none" xmlns="http://www.w3.org/2000/svg">
<path fill-rule="evenodd" clip-rule="evenodd" d="M158.53 158C243.012 157.974 311 156.864 311 155.5C311 154.157 245.1 153.061 162.441 153.002C203.205 112.144 234.857 79.3977 234.189 78.7296C233.51 78.0511 199.746 110.708 158 152.39C157.973 67.9454 156.864 0 155.5 0C154.136 0 153.026 67.9891 153 152.472C111.217 110.75 77.4086 78.0506 76.7296 78.7296C76.0615 79.3977 107.713 112.144 148.478 153.003C65.8564 153.062 0 154.157 0 155.5C0 156.864 67.9442 157.973 152.388 158C109.756 200.662 76.0403 235.499 76.7296 236.189C77.4086 236.868 111.218 204.167 153.002 162.445C153.061 245.102 154.157 311 155.5 311C156.843 311 157.938 245.146 157.997 162.526C199.745 204.209 233.51 236.867 234.189 236.189C234.878 235.499 201.162 200.662 158.53 158Z" fill="white"/>
</svg>
