<svg xmlns="http://www.w3.org/2000/svg" width="125" height="35" fill="none"><path fill="#737373" fill-rule="evenodd" d="M20.72 0c3.192 0 6.095 1.161 8.417 2.902L13.319 21.913.403 12.19C.983 5.37 6.788 0 13.899 0" clip-rule="evenodd"/><path fill="#737373" fill-rule="evenodd" d="M13.9 34.248c-8.009 0-13.64-6.67-13.64-14.367l11.754 8.708c1.306 1.016 3.193.725 4.209-.436L33.056 7.836c1.965 3.93 1.45 8.368 1.45 12.626a13.625 13.625 0 0 1-13.64 13.641" clip-rule="evenodd"/><g clip-path="url(#a)"><path fill="#737373" d="M60.618 17.205c0 1.631-.33 3.079-.992 4.343-.661 1.249-1.58 2.226-2.755 2.932-1.176.705-2.536 1.058-4.079 1.058-1.528 0-2.88-.353-4.056-1.058-1.176-.706-2.094-1.683-2.756-2.932-.646-1.25-.97-2.69-.97-4.321 0-1.646.33-3.094.992-4.343.662-1.264 1.573-2.249 2.734-2.954 1.176-.706 2.535-1.058 4.078-1.058 1.543 0 2.895.352 4.057 1.058 1.175.705 2.094 1.683 2.755 2.932.662 1.249.992 2.697.992 4.343zm-2.954 0c0-1.147-.198-2.139-.595-2.976-.397-.838-.955-1.485-1.675-1.94-.72-.47-1.58-.706-2.58-.706-.984 0-1.844.235-2.58.706-.72.455-1.278 1.102-1.675 1.94-.396.837-.595 1.83-.595 2.976s.199 2.146.596 2.998c.396.838.955 1.484 1.675 1.94.735.456 1.595.683 2.58.683.999 0 1.858-.227 2.579-.683.72-.47 1.278-1.124 1.675-1.962.397-.853.595-1.845.595-2.976zm5.206 13.117v-15.94h2.491l.176 1.654c.324-.632.823-1.117 1.5-1.455a4.74 4.74 0 0 1 2.226-.529c1.043 0 1.94.235 2.69.706a4.81 4.81 0 0 1 1.785 1.962c.427.838.64 1.83.64 2.976 0 1.131-.199 2.138-.596 3.02-.396.882-.977 1.58-1.741 2.094-.75.5-1.668.75-2.756.75-.808 0-1.55-.154-2.227-.463-.66-.309-1.16-.735-1.499-1.279v6.504h-2.69zm2.712-10.494c0 .647.124 1.22.374 1.72s.603.896 1.058 1.19c.47.28 1.014.419 1.632.419.632 0 1.175-.14 1.631-.419.456-.294.801-.69 1.036-1.19s.353-1.073.353-1.72c0-.646-.118-1.22-.353-1.72a2.67 2.67 0 0 0-1.036-1.168c-.456-.294-1-.44-1.631-.44-.618 0-1.161.139-1.632.418-.455.28-.808.669-1.058 1.169s-.374 1.08-.374 1.741zm9.75-5.445h6.877v2.249h-6.878v-2.25zm4.783 10.89h-2.69V10.988h2.69v14.285zm3.788 0v-10.89h2.69v10.89h-2.69zM85.226 12.2c-.455 0-.845-.154-1.168-.462a1.631 1.631 0 0 1-.463-1.169c0-.456.154-.838.463-1.146a1.631 1.631 0 0 1 1.168-.463c.456 0 .838.154 1.147.463.323.308.484.69.484 1.146 0 .456-.161.845-.484 1.168-.31.31-.691.463-1.147.463zm6.835 13.073h-2.69v-10.89h2.47l.33 1.94-.308-.265c.22-.529.624-.992 1.212-1.389.588-.411 1.323-.617 2.205-.617.955 0 1.734.25 2.337.75.617.5 1.043 1.16 1.278 1.984h-.44a3.17 3.17 0 0 1 1.234-1.984c.676-.5 1.492-.75 2.447-.75 1.323 0 2.337.375 3.042 1.125.706.734 1.059 1.727 1.059 2.976v7.12h-2.668v-6.415c0-.779-.198-1.367-.595-1.764-.382-.411-.897-.617-1.543-.617-.412 0-.794.096-1.147.287a2.1 2.1 0 0 0-.815.86c-.206.382-.31.874-.31 1.477v6.172H96.47v-6.437c0-.764-.19-1.345-.573-1.741-.382-.397-.889-.596-1.52-.596-.427 0-.817.096-1.17.287-.352.176-.631.463-.837.86-.206.382-.309.867-.309 1.455v6.172zm20.056.287c-1.146 0-2.057-.309-2.733-.926-.662-.632-.992-1.455-.992-2.469 0-1 .345-1.793 1.036-2.38.705-.604 1.705-.956 2.998-1.06l3.263-.264v-.242c0-.5-.096-.897-.287-1.19a1.482 1.482 0 0 0-.771-.662c-.338-.147-.735-.22-1.191-.22-.793 0-1.403.161-1.83.485-.426.308-.639.75-.639 1.322h-2.293c0-.793.199-1.477.596-2.05.411-.588.984-1.043 1.719-1.367.75-.323 1.609-.485 2.579-.485.985 0 1.83.177 2.536.53a3.605 3.605 0 0 1 1.631 1.543c.382.676.573 1.52.573 2.535v6.613h-2.359l-.198-1.609c-.235.558-.691 1.014-1.367 1.367-.661.353-1.418.529-2.271.529zm.86-2.028c.838 0 1.499-.235 1.984-.706.5-.47.75-1.124.75-1.962v-.573l-2.271.177c-.838.073-1.433.25-1.785.529-.353.264-.53.617-.53 1.058 0 .485.162.852.485 1.102.324.25.779.375 1.367.375zm10.689 1.741h-2.668V8.872h2.668v16.401z"/></g><defs><clipPath id="a"><path fill="#fff" d="M44.838 0h80v34h-80z"/></clipPath></defs></svg>