<svg xmlns="http://www.w3.org/2000/svg" width="124" height="35" fill="none"><g clip-path="url(#a)"><path fill="#737373" fill-rule="evenodd" d="M17.288 34.27c9.513 0 17.224-7.712 17.224-17.224S26.801-.178 17.288-.178C7.776-.178.064 7.534.064 17.046S7.776 34.27 17.288 34.27zm5.373-26.424c.262-.93-.64-1.479-1.463-.892L9.704 15.143c-.893.636-.753 1.903.21 1.903h3.028v-.023h5.898l-4.806 1.696-2.119 7.527c-.261.93.64 1.479 1.463.892l11.495-8.188c.893-.636.752-1.904-.211-1.904h-4.59l2.59-9.2z" clip-rule="evenodd"/><g clip-path="url(#b)"><path fill="#737373" d="M56.446 25.067H44.358v-2.563l7.838-9.974H44.38V9.732h11.81v2.606l-7.88 9.93h8.136v2.799zm8.897 0v-1.41c-.748 1.068-1.88 1.623-3.439 1.623-2.37 0-3.95-1.388-3.95-3.524 0-2.22 1.793-3.417 5.125-3.417.64 0 1.196.043 1.9.128v-.683c0-1.282-.725-2.03-1.964-2.03-1.281 0-2.05.748-2.157 2.03h-2.67c.171-2.627 2.072-4.336 4.827-4.336 2.99 0 4.741 1.645 4.741 4.442v7.177h-2.413zm-4.592-3.396c0 .96.684 1.559 1.794 1.559 1.516 0 2.435-.833 2.435-2.157v-.812c-.705-.107-1.196-.15-1.709-.15-1.687 0-2.52.535-2.52 1.56zm20.947-2.307c0 3.375-1.986 5.916-5.062 5.916-1.345 0-2.498-.576-3.353-1.687v5.596h-2.968V13.662h2.733v1.666c.876-1.218 2.136-1.88 3.588-1.88 3.076 0 5.062 2.563 5.062 5.916zm-3.054 0c0-2.136-1.217-3.289-2.67-3.289-1.452 0-2.67 1.132-2.67 3.29 0 2.156 1.218 3.267 2.67 3.267 1.453 0 2.67-1.09 2.67-3.268zm8.91 5.703h-2.948v-8.864H82.3v-2.541h2.306v-.62c0-2.264 1.218-3.545 3.588-3.545.727 0 1.346.128 1.837.342v2.35c-.32-.13-.748-.193-1.132-.193-.811 0-1.345.32-1.345 1.11v.556h2.968v2.541h-2.968v8.864zm11.035 0v-1.41c-.748 1.068-1.88 1.623-3.439 1.623-2.37 0-3.95-1.388-3.95-3.524 0-2.22 1.793-3.417 5.125-3.417.64 0 1.196.043 1.9.128v-.683c0-1.282-.725-2.03-1.964-2.03-1.281 0-2.05.748-2.157 2.03h-2.67c.171-2.627 2.072-4.336 4.827-4.336 2.99 0 4.741 1.645 4.741 4.442v7.177h-2.413zm-4.592-3.396c0 .96.683 1.559 1.794 1.559 1.517 0 2.435-.833 2.435-2.157v-.812c-.705-.107-1.196-.15-1.709-.15-1.687 0-2.52.535-2.52 1.56zm19.196-.256c0 2.392-1.816 3.865-5.062 3.865-3.246 0-5.062-1.559-5.297-4.1h2.841c.021 1.174 1.025 1.922 2.499 1.922 1.153 0 2.029-.363 2.029-1.175 0-.726-.47-1.025-1.559-1.239l-2.051-.384c-2.05-.363-3.289-1.495-3.289-3.268 0-2.114 1.816-3.588 4.656-3.588 2.862 0 4.827 1.517 5.041 3.973h-2.841c-.107-1.11-.94-1.794-2.2-1.794-1.089 0-1.815.405-1.815 1.132 0 .683.47.96 1.495 1.153l2.2.406c2.221.427 3.353 1.452 3.353 3.096zm8.888.768v2.585c-.726.363-1.41.512-2.285.512-2.35 0-3.823-1.345-3.823-3.908v-5.169h-2.307v-2.541h2.307v-3.375h2.947v3.375h3.268v2.541h-3.268v4.485c0 1.325.598 1.859 1.666 1.859.555 0 1.068-.129 1.495-.364z"/></g></g><defs><clipPath id="a"><path fill="#fff" d="M.143 0h123v34.448h-123z"/></clipPath><clipPath id="b"><path fill="#fff" d="M44.924 0h95.075v34.448H44.924z"/></clipPath></defs></svg>