<svg width="938" height="834" viewBox="0 0 938 834" fill="none" xmlns="http://www.w3.org/2000/svg">
<path fill-rule="evenodd" clip-rule="evenodd" d="M378.628 199.101L344.974 189.376C344.186 189.148 344.186 188.031 344.974 187.803L378.628 178.079L451.379 157.1L485.315 146.32C487.843 145.517 489.825 143.539 490.632 141.011L501.482 107.054L522.534 34.2636L532.254 0.591353C532.482 -0.197115 533.598 -0.197115 533.826 0.591353L543.546 34.2636L564.513 107.054L575.287 141.008C576.09 143.537 578.067 145.521 580.593 146.328L614.532 157.184L687.283 178.248L720.936 187.973C721.724 188.2 721.724 189.318 720.936 189.545L687.283 199.27L614.532 220.249L580.596 231.029C578.068 231.832 576.086 233.81 575.279 236.338L564.429 270.295L543.376 343.085L533.657 376.757C533.429 377.546 532.313 377.546 532.085 376.757L522.365 343.085L501.398 270.295L490.624 236.341C489.821 233.811 487.844 231.828 485.318 231.02L451.379 220.165L378.628 199.101ZM239.701 225.77C306.146 226.296 362.922 235.068 408.537 268.179C494.158 330.331 494.274 503.585 408.537 565.819C362.922 598.931 306.146 607.702 239.701 608.229V608.255H233.098V608.229C166.654 607.702 109.878 598.931 64.2628 565.819C-21.4768 503.582 -21.365 330.336 64.2628 268.179C109.878 235.068 166.654 226.296 233.098 225.77V225.744H239.701V225.77ZM239.701 510.322C256.984 510.261 303.898 508.03 328.26 486.655C363.604 455.644 363.281 378.068 328.26 347.343C303.898 325.967 256.984 323.736 239.701 323.675V323.77H233.098V323.675C215.816 323.736 168.902 325.967 144.539 347.343C109.502 378.086 109.21 455.656 144.539 486.655C168.902 508.03 215.816 510.261 233.098 510.322V510.227H239.701V510.322ZM720.936 644.622L687.283 634.898L614.532 613.834L580.593 602.978C578.067 602.171 576.09 600.187 575.287 597.658L564.513 563.704L543.546 490.913L533.826 457.241C533.598 456.453 532.482 456.453 532.254 457.241L522.534 490.913L501.482 563.704L490.632 597.661C489.825 600.189 487.843 602.167 485.315 602.97L451.379 613.749L378.628 634.728L344.974 644.453C344.186 644.681 344.186 645.798 344.974 646.026L378.628 655.751L451.379 676.815L485.318 687.67C487.844 688.478 489.821 690.461 490.624 692.99L501.398 726.945L522.365 799.735L532.085 833.407C532.313 834.196 533.429 834.196 533.657 833.407L543.376 799.735L564.429 726.945L575.279 692.988C576.086 690.46 578.068 688.482 580.596 687.679L614.532 676.899L687.283 655.92L720.936 646.195C721.724 645.967 721.724 644.85 720.936 644.622ZM903.756 406.572L937.41 416.297C938.198 416.525 938.198 417.642 937.41 417.87L903.756 427.595L831.006 448.574L797.07 459.353C794.542 460.156 792.56 462.134 791.752 464.662L780.903 498.619L759.85 571.409L750.131 605.082C749.903 605.87 748.786 605.87 748.559 605.082L738.839 571.409L717.872 498.619L707.098 464.665C706.295 462.136 704.318 460.152 701.792 459.345L667.853 448.489L595.102 427.425L561.448 417.7C560.66 417.473 560.66 416.355 561.448 416.128L595.102 406.403L667.853 385.424L701.789 374.644C704.317 373.841 706.299 371.863 707.106 369.335L717.956 335.378L739.008 262.588L748.728 228.916C748.955 228.127 750.072 228.127 750.3 228.916L760.019 262.588L780.987 335.378L791.76 369.332C792.564 371.862 794.541 373.845 797.067 374.653L831.006 385.508L903.756 406.572Z" fill="white"/>
</svg>
