<svg xmlns="http://www.w3.org/2000/svg" width="135" height="35" fill="none"><path fill="#737373" fill-rule="evenodd" d="M18.503 33.453c7.16 0 13.508-4.728 15.535-11.617-5.635.94-11.71-1.395-15.535-5.538-3.824 4.143-9.9 6.477-15.534 5.538 2.161 7.024 8.375 11.617 15.534 11.617zM34.711 18.46c0-7.574-4.027-14.519-11.617-16.751.697 4.182-.505 8.743-2.701 12.292 3.631 3.805 9.16 5.748 14.318 4.458zm-18.234-4.594c-2.252-3.463-3.39-8.03-2.702-12.157C6.247 3.967 2.293 10.95 2.293 18.459c5.135 1.284 10.722-.611 14.184-4.593zm2.025-2.836c1.08-2.027 1.62-4.323 1.62-6.754 0-1.081-.134-2.162-.404-3.242h-2.432a13.32 13.32 0 0 0-.405 3.242c0 2.431.675 4.727 1.62 6.754z" clip-rule="evenodd"/><g clip-path="url(#a)"><path fill="#737373" d="M46.092 15.05c0-.97.25-1.826.75-2.569.5-.742 1.19-1.318 2.069-1.728.894-.424 1.925-.636 3.092-.636 1.121 0 2.091.197 2.91.59.833.395 1.477.956 1.932 1.683.47.728.72 1.592.75 2.592h-2.91c-.03-.712-.288-1.266-.773-1.66-.485-.409-1.136-.613-1.955-.613-.894 0-1.614.204-2.16.613-.53.394-.795.94-.795 1.637 0 .591.159 1.061.477 1.41.334.333.849.583 1.546.75l2.614.591c1.425.303 2.486.826 3.183 1.569.697.727 1.046 1.712 1.046 2.955 0 1.016-.25 1.91-.75 2.683-.5.773-1.213 1.371-2.137 1.796-.91.41-1.978.614-3.206.614-1.167 0-2.19-.197-3.069-.591-.879-.41-1.569-.978-2.069-1.705-.485-.728-.742-1.584-.773-2.57h2.91c.015.698.288 1.251.819 1.66.545.394 1.28.591 2.205.591.97 0 1.735-.197 2.296-.59.576-.41.864-.948.864-1.615 0-.576-.151-1.03-.455-1.364-.303-.349-.795-.591-1.477-.727l-2.638-.592c-1.409-.303-2.477-.848-3.205-1.637-.727-.803-1.091-1.849-1.091-3.137zm14 11.981v-11.23h2.773v11.23h-2.773zm1.364-13.481c-.47 0-.872-.16-1.205-.478a1.682 1.682 0 0 1-.478-1.205c0-.47.16-.864.478-1.182a1.682 1.682 0 0 1 1.205-.477c.47 0 .863.159 1.182.477.333.319.5.713.5 1.182 0 .47-.167.872-.5 1.205a1.605 1.605 0 0 1-1.182.478zm3.638 7.616c0-1.091.22-2.061.66-2.91a5.23 5.23 0 0 1 1.886-2.046c.804-.5 1.736-.75 2.797-.75.954 0 1.773.212 2.455.636a3.28 3.28 0 0 1 1.432 1.728l-.295.25.227-2.274h2.569v10.663c0 1.243-.243 2.319-.728 3.228a4.873 4.873 0 0 1-2.023 2.114c-.864.5-1.91.75-3.137.75-1.607 0-2.925-.431-3.956-1.295-1.03-.864-1.637-2.046-1.819-3.547h2.774c.09.728.394 1.296.91 1.705.53.41 1.227.614 2.09.614.956 0 1.713-.28 2.274-.841.576-.546.864-1.288.864-2.228v-2.796l.318.295c-.272.713-.772 1.28-1.5 1.705-.727.425-1.569.637-2.524.637-1.06 0-1.985-.243-2.773-.728a4.994 4.994 0 0 1-1.842-2c-.44-.849-.659-1.819-.659-2.91zm2.796-.069c0 .637.122 1.205.364 1.706.258.485.614.871 1.069 1.16.454.287.985.431 1.591.431.637 0 1.182-.136 1.637-.41.47-.287.826-.674 1.069-1.159.257-.5.386-1.076.386-1.727 0-.652-.121-1.213-.364-1.683a2.667 2.667 0 0 0-1.068-1.136c-.455-.273-1.008-.41-1.66-.41-.621 0-1.16.144-1.614.432a2.708 2.708 0 0 0-1.046 1.137c-.242.485-.364 1.038-.364 1.66zm14.579 5.934h-2.774v-11.23h2.57l.227 1.454c.348-.56.84-1 1.477-1.318a4.753 4.753 0 0 1 2.115-.478c1.41 0 2.47.417 3.182 1.25.728.834 1.092 1.971 1.092 3.41v6.912h-2.774V20.78c0-.94-.212-1.637-.636-2.091-.425-.47-1-.705-1.728-.705-.864 0-1.538.273-2.023.818-.486.546-.728 1.274-.728 2.183v6.047zm18.23-11.23h2.773v11.23h-2.568l-.205-1.5c-.334.53-.834.962-1.5 1.296-.667.333-1.38.5-2.138.5-1.288 0-2.296-.41-3.023-1.228-.728-.818-1.091-1.91-1.091-3.274V15.8h2.773v6.048c0 1.06.205 1.826.614 2.296.41.47 1 .705 1.773.705.88 0 1.531-.258 1.955-.773.425-.53.637-1.326.637-2.387V15.8zm8.412 11.23h-2.774v-11.23h2.546l.341 2-.318-.273c.228-.545.644-1.023 1.251-1.432.606-.424 1.364-.637 2.273-.637.985 0 1.788.258 2.41.773.636.516 1.076 1.198 1.318 2.047h-.454a3.266 3.266 0 0 1 1.273-2.047c.697-.515 1.538-.773 2.523-.773 1.364 0 2.41.387 3.138 1.16.727.758 1.091 1.78 1.091 3.069v7.343h-2.751v-6.615c0-.804-.204-1.41-.614-1.82-.394-.424-.924-.636-1.591-.636-.424 0-.819.099-1.182.296a2.161 2.161 0 0 0-.841.886c-.213.394-.319.902-.319 1.524v6.365h-2.773v-6.638c0-.788-.197-1.387-.591-1.796-.395-.41-.917-.614-1.569-.614-.44 0-.841.098-1.205.296-.364.181-.652.477-.864.886-.212.394-.318.894-.318 1.5v6.366zm19.205.273c-.5 0-.932-.174-1.296-.523a1.696 1.696 0 0 1-.546-1.273c0-.5.182-.924.546-1.273a1.771 1.771 0 0 1 1.296-.546c.5 0 .932.182 1.296.546.364.349.545.773.545 1.273 0 .5-.181.925-.545 1.273a1.81 1.81 0 0 1-1.296.523z"/></g><defs><clipPath id="a"><path fill="#fff" d="M45.72 0h88.871v34.446H45.72z"/></clipPath></defs></svg>