<svg xmlns="http://www.w3.org/2000/svg" width="121" height="35" fill="none"><path fill="#6E6C71" d="M20.485 34.318c19.194-2.742 19.195-31.405 0-34.147 11.537 8.28 11.505 25.863 0 34.147z"/><path fill="#6E6C71" d="M12.889 33.635c1.195.384 2.39.64 3.67.726 9.92-9.1 9.927-25.177 0-34.276-1.28.129-2.518.385-3.67.726 8.333 9.149 8.33 23.678 0 32.824z"/><path fill="#6E6C71" d="M8.45 31.5c8.09-7.635 8.168-20.896 0-28.512-9.968 6.645-9.972 21.864 0 28.513zm45.745-19.532c-1.025 0-1.9.235-2.627.705-.726.47-1.281 1.125-1.666 1.965-.384.826-.577 1.808-.577 2.947 0 1.153.207 2.136.62 2.947.413.797.982 1.403 1.708 1.816.74.412 1.588.619 2.542.619.697 0 1.31-.086 1.837-.256a3.796 3.796 0 0 0 1.366-.79c.37-.357.655-.784.855-1.282.213-.498.32-1.054.32-1.666v-1.367l1.281 1.303h-6v-2.413h7.26v8.777h-2.306l-.235-2.52.32.32c-.228.47-.59.89-1.089 1.26-.484.37-1.06.663-1.73.876-.669.2-1.395.3-2.178.3-1.452 0-2.74-.328-3.866-.983-1.11-.67-1.986-1.602-2.627-2.798-.626-1.196-.94-2.598-.94-4.207 0-1.58.321-2.976.962-4.186a7.302 7.302 0 0 1 2.733-2.883c1.182-.698 2.549-1.047 4.1-1.047 1.197 0 2.279.221 3.247.663.968.427 1.758 1.032 2.37 1.815.627.783 1.011 1.708 1.154 2.776h-2.883c-.242-.925-.726-1.602-1.453-2.029-.726-.441-1.558-.662-2.498-.662zm16.087 2.713v2.413h-.961c-.954 0-1.702.256-2.243.769-.54.498-.811 1.26-.811 2.285v5.125H63.66V14.745h2.456l.214 2.178h-.257a2.923 2.923 0 0 1 1.004-1.709c.527-.441 1.21-.662 2.05-.662.185 0 .37.008.556.022.185.014.384.05.598.107zm4.486 10.87c-1.111 0-1.994-.299-2.649-.897-.64-.612-.96-1.41-.96-2.392 0-.968.334-1.737 1.003-2.306.683-.584 1.651-.926 2.904-1.026l3.161-.256v-.235c0-.484-.092-.868-.277-1.153a1.438 1.438 0 0 0-.748-.64c-.327-.143-.712-.214-1.153-.214-.769 0-1.36.156-1.773.47-.413.299-.62.726-.62 1.281h-2.22c0-.769.192-1.43.576-1.986.4-.57.954-1.011 1.666-1.324.726-.313 1.56-.47 2.499-.47.954 0 1.773.17 2.456.512a3.49 3.49 0 0 1 1.58 1.495c.37.655.556 1.474.556 2.456v6.407h-2.285l-.193-1.559c-.227.541-.669.983-1.324 1.324-.64.342-1.374.513-2.2.513zm.832-1.965c.812 0 1.453-.228 1.922-.683.484-.456.727-1.09.727-1.901v-.555l-2.2.17c-.812.072-1.388.243-1.73.513a1.218 1.218 0 0 0-.513 1.025c0 .47.157.826.47 1.068.314.242.755.363 1.324.363zm7.728 6.578v-15.44h2.413l.171 1.6c.314-.611.798-1.081 1.453-1.409a4.592 4.592 0 0 1 2.157-.512c1.01 0 1.879.228 2.605.683a4.66 4.66 0 0 1 1.73 1.901c.413.812.62 1.773.62 2.883 0 1.096-.193 2.072-.577 2.926-.385.854-.947 1.53-1.687 2.029-.727.484-1.616.726-2.67.726-.783 0-1.502-.15-2.157-.448-.64-.3-1.125-.712-1.452-1.24v6.301h-2.606zm2.627-10.166c0 .627.121 1.182.363 1.666s.584.869 1.025 1.153c.456.27.983.406 1.58.406.613 0 1.14-.135 1.581-.406a2.723 2.723 0 0 0 1.004-1.153c.228-.484.342-1.04.342-1.666 0-.626-.114-1.181-.342-1.666a2.587 2.587 0 0 0-1.004-1.131c-.441-.285-.968-.428-1.58-.428-.598 0-1.125.136-1.58.406a2.72 2.72 0 0 0-1.026 1.132c-.242.484-.363 1.047-.363 1.687zm13.201 5.275h-2.605V9.384h2.627v6.706a3.445 3.445 0 0 1 1.367-1.217c.598-.313 1.281-.47 2.05-.47 1.295 0 2.278.391 2.947 1.175.683.782 1.025 1.85 1.025 3.203v6.492h-2.605V19.4c0-.598-.093-1.089-.278-1.473-.185-.385-.441-.67-.769-.855-.327-.199-.712-.299-1.153-.299-.541 0-1.011.121-1.41.364a2.342 2.342 0 0 0-.897.96 3.209 3.209 0 0 0-.299 1.41v5.766zm9.352-5.296c0-1.096.242-2.057.726-2.883a5.122 5.122 0 0 1 2.007-1.965c.855-.47 1.823-.705 2.905-.705 1.096 0 2.064.235 2.904.705a5.118 5.118 0 0 1 2.008 1.965c.484.826.726 1.787.726 2.883s-.242 2.064-.726 2.904a5.162 5.162 0 0 1-2.008 1.944c-.84.47-1.808.705-2.904.705-1.082 0-2.05-.235-2.905-.705a5.166 5.166 0 0 1-2.007-1.944c-.484-.84-.726-1.808-.726-2.904zm2.605 0c0 .64.128 1.203.385 1.687.27.484.626.861 1.067 1.132.456.27.983.406 1.581.406s1.125-.136 1.58-.406a2.82 2.82 0 0 0 1.068-1.132c.256-.484.384-1.046.384-1.687 0-.655-.128-1.217-.384-1.687a2.82 2.82 0 0 0-1.068-1.132c-.455-.27-.982-.406-1.58-.406-.598 0-1.125.135-1.581.406-.441.27-.797.648-1.067 1.132-.257.47-.385 1.032-.385 1.687z"/></svg>