<svg xmlns="http://www.w3.org/2000/svg" width="112" height="35" fill="none"><path fill="#737373" d="M16.731 28.887a8.956 8.956 0 1 1-7.578-13.731c3.28 0 6.03 1.807 7.578 4.345-1.767 2.911-1.895 6.596 0 9.386z"/><path fill="#737373" d="M25.678 15.156A8.956 8.956 0 1 1 18.05 28.86c-1.738-2.781-1.663-6.07-.33-8.729 3.404-.044 6.597-1.887 7.96-4.974z"/><path fill="#737373" d="M9.422 13.668a8.956 8.956 0 1 1 15.675.502c-1.676 2.82-4.634 4.26-7.607 4.294-1.6-3.006-4.7-5-8.068-4.796z"/><g clip-path="url(#a)"><path fill="#737373" d="M50.791 25.722 44.516 9.103h3.092l3.638 9.572c.182.485.356.992.523 1.523.166.53.34 1.129.523 1.796.197-.728.386-1.357.568-1.887.182-.53.349-1.008.5-1.432l3.592-9.572h3.024l-6.184 16.62h-3zm13.964.296c-1.107 0-2.092-.25-2.956-.75a5.526 5.526 0 0 1-2-2.092c-.485-.894-.728-1.917-.728-3.07 0-1.166.235-2.197.705-3.091a5.161 5.161 0 0 1 1.978-2.091c.849-.516 1.819-.774 2.91-.774 1.136 0 2.114.243 2.933.728a4.75 4.75 0 0 1 1.887 1.978c.454.849.681 1.864.681 3.046v.841l-9.639.023.046-1.773h6.843c0-.773-.25-1.394-.75-1.864-.486-.47-1.145-.705-1.978-.705-.652 0-1.205.136-1.66.41-.44.272-.773.681-1 1.227-.228.545-.341 1.212-.341 2 0 1.213.257 2.13.773 2.751.53.622 1.31.932 2.341.932.758 0 1.38-.144 1.865-.432.5-.288.825-.697.977-1.227h2.569c-.242 1.227-.849 2.19-1.819 2.887-.955.697-2.167 1.046-3.637 1.046zm6.971-5.934c0-1.152.235-2.175.705-3.069a5.368 5.368 0 0 1 1.978-2.091c.848-.516 1.826-.774 2.932-.774 1.531 0 2.782.402 3.752 1.205.985.789 1.553 1.857 1.705 3.206h-2.774c-.167-.637-.477-1.114-.932-1.432-.44-.334-.993-.5-1.66-.5a2.83 2.83 0 0 0-1.546.431c-.44.273-.78.667-1.023 1.183-.242.515-.363 1.129-.363 1.841 0 .713.113 1.326.34 1.842.228.515.554.917.978 1.205.44.272.955.409 1.546.409.697 0 1.273-.167 1.728-.5.47-.334.78-.811.932-1.433h2.796a4.915 4.915 0 0 1-.932 2.32 5.113 5.113 0 0 1-1.887 1.545c-.773.364-1.652.546-2.637.546-1.137 0-2.13-.243-2.978-.728a5.196 5.196 0 0 1-1.978-2.069c-.455-.894-.682-1.94-.682-3.137zm12.045-5.592h7.093v2.318H83.77v-2.318zm4.933 11.23h-2.773V10.99h2.773v14.732zM99.66 14.446v2.569h-1.024c-1.015 0-1.81.273-2.387.819-.576.53-.864 1.34-.864 2.432v5.456h-2.773V14.514h2.614l.228 2.32h-.273a3.112 3.112 0 0 1 1.068-1.82c.561-.47 1.289-.704 2.183-.704.197 0 .394.007.591.022.197.015.41.053.637.114zm4.775 11.572c-1.182 0-2.122-.318-2.819-.955-.682-.652-1.023-1.5-1.023-2.546 0-1.03.356-1.85 1.068-2.456.728-.621 1.758-.985 3.092-1.09l3.365-.274v-.25c0-.515-.099-.924-.296-1.227a1.532 1.532 0 0 0-.795-.682c-.349-.152-.758-.228-1.228-.228-.819 0-1.448.167-1.887.5-.44.319-.659.773-.659 1.364h-2.365c0-.818.205-1.523.614-2.114.424-.606 1.016-1.076 1.773-1.41.773-.333 1.66-.5 2.66-.5 1.016 0 1.887.182 2.615.546.727.349 1.288.88 1.682 1.592.394.697.591 1.568.591 2.614v6.82h-2.432l-.205-1.66c-.243.577-.712 1.046-1.41 1.41-.682.364-1.462.546-2.341.546zm.886-2.092c.864 0 1.546-.242 2.047-.727.515-.485.773-1.16.773-2.024v-.59l-2.342.181c-.864.076-1.478.258-1.842.546a1.298 1.298 0 0 0-.545 1.091c0 .5.167.88.5 1.137.333.257.803.386 1.409.386z"/></g><defs><clipPath id="a"><path fill="#fff" d="M44.978 0h67v34h-67z"/></clipPath></defs></svg>